<svg width="138" height="56" viewBox="0 0 138 56" fill="none" xmlns="http://www.w3.org/2000/svg">
<path d="M35.2864 10.7067H26.0642C25.992 10.7044 25.9201 10.7168 25.8528 10.743C25.7854 10.7692 25.724 10.8087 25.6722 10.8592C25.6204 10.9098 25.5792 10.9702 25.551 11.037C25.5229 11.1038 25.5084 11.1757 25.5085 11.2482V19.0641L13.5077 0.144002C13.4836 0.100372 13.4484 0.0640047 13.4056 0.0386805C13.3629 0.0133563 13.3142 0 13.2645 0C13.2149 0 13.1662 0.0133563 13.1234 0.0386805C13.0807 0.0640047 13.0454 0.100372 13.0214 0.144002L0.253699 20.2533C0.22293 20.2955 0.204603 20.3456 0.20081 20.3978C0.197018 20.45 0.207913 20.5022 0.232251 20.5485C0.25659 20.5948 0.293391 20.6333 0.338455 20.6595C0.383518 20.6858 0.435027 20.6988 0.487102 20.6971H7.85041V33.2082C7.85115 39.2527 10.2416 45.0495 14.4962 49.3236C18.7507 53.5977 24.5209 55.9993 30.5377 56V56C33.5171 56 36.4672 55.4105 39.2198 54.2651C41.9724 53.1197 44.4734 51.4408 46.5801 49.3244C48.6868 47.208 50.3579 44.6955 51.4981 41.9302C52.6382 39.165 53.2251 36.2012 53.2251 33.2082V11.2482C53.2251 11.1046 53.1683 10.9668 53.0672 10.8653C52.9661 10.7637 52.829 10.7067 52.686 10.7067H35.2864ZM43.2165 33.2724C43.2165 36.6505 41.8807 39.8902 39.503 42.2789C37.1253 44.6676 33.9004 46.0096 30.5377 46.0096V46.0096C27.1751 46.0096 23.9502 44.6676 21.5725 42.2789C19.1948 39.8902 17.859 36.6505 17.859 33.2724V20.7111H25.5224V31.4328C25.5224 32.7336 26.0367 33.9811 26.9523 34.9009C27.8678 35.8206 29.1096 36.3373 30.4044 36.3373C31.6992 36.3373 32.9409 35.8206 33.8565 34.9009C34.772 33.9811 35.2864 32.7336 35.2864 31.4328V20.6971H43.2165V33.2724Z" fill="#656565"/>
<path d="M67.913 32.7108H59.6323V20.2583H62.7862V30.1566H67.913V32.7108Z" fill="#656565"/>
<path d="M77.855 32.7108H69.3574V20.2583H77.855V22.8124H72.5113V25.2912H77.5354V27.6192H72.5113V30.1566H77.855V32.7108Z" fill="#656565"/>
<path d="M82.8978 32.7108L78.9464 20.2583H82.5282L84.9152 29.6151H84.9847L87.3633 20.2583H90.8173L86.8659 32.7108H82.8978Z" fill="#656565"/>
<path d="M100.501 32.7108H92.0031V20.2583H100.501V22.8124H95.157V25.2912H100.181V27.6192H95.157V30.1566H100.501V32.7108Z" fill="#656565"/>
<path d="M110.559 32.7108H102.278V20.2583H105.432V30.1566H110.559V32.7108Z" fill="#656565"/>
<path d="M118.578 27.957C118.578 29.4057 119.359 30.2683 120.768 30.2683C122.176 30.2683 122.952 29.4057 122.952 27.957V20.2583H126.081V28.2947C126.081 31.0862 123.969 32.9285 120.745 32.9285C117.522 32.9285 115.404 31.0889 115.404 28.2947V20.2583H118.578V27.957Z" fill="#656565"/>
<path d="M133.335 20.2583C135.997 20.2583 137.801 21.9946 137.801 24.6687C137.801 27.3429 135.903 29.0624 133.146 29.0624H131.118V32.7108H127.967V20.2583H133.335ZM131.112 26.6785H132.479C133.819 26.6785 134.608 25.9807 134.608 24.6771C134.608 23.3735 133.819 22.684 132.496 22.684H131.107L131.112 26.6785Z" fill="#656565"/>
<path d="M74.9537 38.9858C76.621 38.9858 77.6964 39.9126 77.7325 41.2357H76.3431C76.2625 40.5407 75.754 40.1024 74.9315 40.1024C74.109 40.1024 73.6088 40.4904 73.6088 41.0626C73.6088 41.5149 73.9339 41.8219 74.7203 41.9978L75.8791 42.2769C77.3379 42.6175 77.8937 43.1897 77.8937 44.2309C77.8937 45.5401 76.6794 46.4417 74.9982 46.4417C73.2142 46.4417 72.1416 45.5624 72.0054 44.2086H73.456C73.5921 44.9594 74.1006 45.3251 74.9982 45.3251C75.8957 45.3251 76.4209 44.9567 76.4209 44.3705C76.4209 43.9071 76.1569 43.6335 75.3761 43.4577L74.2173 43.1785C72.8613 42.8659 72.1888 42.2099 72.1888 41.1687C72.2027 39.8651 73.3142 38.9858 74.9537 38.9858Z" fill="#656565"/>
<path d="M78.7213 42.6984C78.7213 40.3955 80.0718 38.9858 82.1087 38.9858C84.1455 38.9858 85.4932 40.3955 85.4932 42.6984C85.4932 45.0013 84.1511 46.4221 82.1087 46.4221C80.0662 46.4221 78.7213 45.0097 78.7213 42.6984ZM84.001 42.6984C84.001 41.1129 83.2535 40.1861 82.1087 40.1861C80.9638 40.1861 80.2163 41.1017 80.2163 42.6984C80.2163 44.2951 80.961 45.2107 82.1087 45.2107C83.2563 45.2107 84.001 44.2951 84.001 42.6984Z" fill="#656565"/>
<path d="M86.6819 36.4517H88.1464V46.2858H86.6819V36.4517Z" fill="#656565"/>
<path d="M95.7712 46.2856H94.3679V45.0713H94.3346C93.94 45.931 93.2231 46.414 92.1116 46.414C90.5582 46.414 89.6107 45.3979 89.6107 43.7565V39.1144H91.0751V43.469C91.0751 44.5605 91.5919 45.1439 92.6034 45.1439C93.6621 45.1439 94.2985 44.4069 94.2985 43.2904V39.1033H95.7629L95.7712 46.2856Z" fill="#656565"/>
<path d="M99.1276 37.4146V39.1117H100.486V40.2785H99.1276V44.2312C99.1276 44.8509 99.4055 45.13 99.9974 45.13C100.158 45.1306 100.319 45.1194 100.478 45.0965V46.2605C100.21 46.3122 99.937 46.3356 99.6639 46.3303C98.2189 46.3303 97.6576 45.772 97.6576 44.3931V40.2813H96.6183V39.1145H97.6576V37.4146H99.1276Z" fill="#656565"/>
<path d="M101.609 37.1103C101.609 36.9452 101.657 36.7839 101.748 36.6465C101.839 36.5091 101.969 36.4018 102.12 36.338C102.272 36.2742 102.439 36.2569 102.6 36.288C102.761 36.3192 102.91 36.3976 103.027 36.5134C103.144 36.6291 103.224 36.777 103.258 36.9385C103.292 37.1 103.277 37.2679 103.216 37.4212C103.155 37.5744 103.051 37.7061 102.916 37.7998C102.78 37.8935 102.62 37.9449 102.456 37.9477C102.346 37.9495 102.236 37.9292 102.133 37.888C102.03 37.8467 101.937 37.7853 101.858 37.7074C101.779 37.6294 101.716 37.5365 101.673 37.434C101.631 37.3315 101.609 37.2214 101.609 37.1103ZM101.723 39.1145H103.19V46.2856H101.723V39.1145Z" fill="#656565"/>
<path d="M104.368 42.6984C104.368 40.3955 105.718 38.9858 107.755 38.9858C109.792 38.9858 111.14 40.3955 111.14 42.6984C111.14 45.0013 109.798 46.4221 107.755 46.4221C105.713 46.4221 104.368 45.0097 104.368 42.6984ZM109.648 42.6984C109.648 41.1129 108.9 40.1861 107.755 40.1861C106.61 40.1861 105.863 41.1017 105.863 42.6984C105.863 44.2951 106.608 45.2107 107.755 45.2107C108.903 45.2107 109.648 44.2951 109.648 42.6984Z" fill="#656565"/>
<path d="M112.273 39.1143H113.662V40.3146H113.696C114.082 39.4967 114.843 38.9915 115.941 38.9915C117.517 38.9915 118.42 40.0019 118.42 41.6433V46.2854H116.947V41.9308C116.947 40.8533 116.444 40.256 115.427 40.256C114.41 40.256 113.732 40.9929 113.732 42.1039V46.291H112.265L112.273 39.1143Z" fill="#656565"/>
<path d="M122.468 38.9858C124.135 38.9858 125.208 39.9126 125.247 41.2357H123.857C123.777 40.5407 123.268 40.1024 122.448 40.1024C121.629 40.1024 121.126 40.4904 121.126 41.0626C121.126 41.5149 121.451 41.8219 122.223 41.9978L123.385 42.2769C124.841 42.6175 125.4 43.1897 125.4 44.2309C125.4 45.5401 124.185 46.4417 122.501 46.4417C120.717 46.4417 119.645 45.5624 119.508 44.2086H120.962C121.098 44.9594 121.606 45.3251 122.501 45.3251C123.396 45.3251 123.927 44.9567 123.927 44.3705C123.927 43.9071 123.663 43.6335 122.882 43.4577L121.72 43.1785C120.364 42.8659 119.692 42.2099 119.692 41.1687C119.709 39.8651 120.823 38.9858 122.468 38.9858Z" fill="#656565"/>
<path d="M69.4219 41.9673V43.4386H59.6323V41.9673H69.4219Z" fill="#656565"/>
<path d="M137.801 41.9673V43.4386H128.025V41.9673H137.801Z" fill="#656565"/>
</svg>
